<?xml version="1.0" encoding="UTF-8" standalone="no"?>
<!-- Created with Inkscape (http://www.inkscape.org/) -->

<svg
   xmlns:dc="http://purl.org/dc/elements/1.1/"
   xmlns:cc="http://creativecommons.org/ns#"
   xmlns:rdf="http://www.w3.org/1999/02/22-rdf-syntax-ns#"
   xmlns:svg="http://www.w3.org/2000/svg"
   xmlns="http://www.w3.org/2000/svg"
   xmlns:xlink="http://www.w3.org/1999/xlink"
   xmlns:sodipodi="http://sodipodi.sourceforge.net/DTD/sodipodi-0.dtd"
   xmlns:inkscape="http://www.inkscape.org/namespaces/inkscape"
   width="1366.0039"
   height="656.82031"
   version="1.1"
   viewBox="0 0 361.42103 173.78754"
   id="svg1478"
   sodipodi:docname="bgd.svg"
   inkscape:version="0.92.4 (5da689c313, 2019-01-14)">
  <sodipodi:namedview
     pagecolor="#ffffff"
     bordercolor="#666666"
     borderopacity="1"
     objecttolerance="10"
     gridtolerance="10"
     guidetolerance="10"
     inkscape:pageopacity="0"
     inkscape:pageshadow="2"
     inkscape:window-width="1366"
     inkscape:window-height="705"
     id="namedview1480"
     showgrid="false"
     fit-margin-top="0"
     fit-margin-left="0"
     fit-margin-right="0"
     fit-margin-bottom="0"
     inkscape:zoom="0.63030747"
     inkscape:cx="761.53505"
     inkscape:cy="290.66889"
     inkscape:window-x="-8"
     inkscape:window-y="-8"
     inkscape:window-maximized="1"
     inkscape:current-layer="svg1478" />
  <defs
     id="defs1461">
    <linearGradient
       id="linearGradient6669"
       x1="-129.89999"
       x2="390.34"
       y1="342"
       y2="81.120003"
       gradientTransform="translate(2.5427,-2.1141)"
       gradientUnits="userSpaceOnUse">
      <stop
         stop-color="#0ec7f9"
         stop-opacity=".69804"
         offset="0"
         id="stop1456" />
      <stop
         stop-color="#276ac9"
         stop-opacity=".776"
         offset="1"
         id="stop1458" />
    </linearGradient>
    <linearGradient
       inkscape:collect="always"
       xlink:href="#linearGradient4529"
       id="linearGradient6669-4"
       gradientUnits="userSpaceOnUse"
       x1="-129.90381"
       y1="342"
       x2="390.34134"
       y2="81.120033"
       gradientTransform="matrix(1.0000221,0,0,0.85487456,-0.00452211,-80.110213)" />
    <linearGradient
       inkscape:collect="always"
       id="linearGradient4529">
      <stop
         style="stop-color:#0ec7f9;stop-opacity:0.69803923"
         offset="0"
         id="stop4525" />
      <stop
         style="stop-color:#276ac9;stop-opacity:0.776"
         offset="1"
         id="stop4527" />
    </linearGradient>
  </defs>
  <metadata
     id="metadata1463">
    <rdf:RDF>
      <cc:Work
         rdf:about="">
        <dc:format>image/svg+xml</dc:format>
        <dc:type
           rdf:resource="http://purl.org/dc/dcmitype/StillImage" />
        <dc:title></dc:title>
      </cc:Work>
    </rdf:RDF>
  </metadata>
  <path
     style="opacity:1;fill:url(#linearGradient6669-4);fill-opacity:1;stroke:none;stroke-width:0.24463491px;stroke-linecap:butt;stroke-linejoin:miter;stroke-opacity:1"
     d="M 133.20694,0 -0.00440011,0.2480524 V 173.78754 H 57.500851 c 8.552464,-6.8875 19.260967,-11.24836 31.122816,-11.91168 9.808427,-0.53004 19.714453,5.23458 29.515643,4.69077 9.80117,-0.54449 16.48889,-7.23842 26.28166,-7.81106 9.80843,-0.53005 18.69951,6.61385 28.5007,6.07004 9.80117,-0.54448 17.49594,-8.63969 27.29661,-9.19034 9.80063,-0.55133 18.86131,6.61081 28.5007,6.07005 9.62771,-0.53999 17.50331,-8.6177 27.29609,-9.19034 9.80842,-0.53004 18.86182,6.6103 28.50122,6.06953 9.62772,-0.53999 17.50334,-8.61718 27.29608,-9.18982 20.1115,-1.12466 38.55924,8.65153 49.61306,24.2404 L 361.35309,28.284166 H 221.53683 c -0.0351,0.02252 -0.0745,0.03876 -0.11937,0.03876 H 199.66378 C 184.2844,28.465762 158.71983,28.678579 143.94812,22.655964 133.71374,18.483272 132.43801,7.3066772 132.43798,2.6086837 132.43798,1.7099894 132.70543,0.8403519 133.20694,0 Z"
     id="path4523"
     inkscape:connector-curvature="0" />
</svg>
