<?xml version="1.0" encoding="UTF-8"?>
<!-- Created with Inkscape (http://www.inkscape.org/) -->
<svg width="1366" height="768.55" version="1.1" viewBox="0 0 361.42 203.35" xmlns="http://www.w3.org/2000/svg" xmlns:cc="http://creativecommons.org/ns#" xmlns:dc="http://purl.org/dc/elements/1.1/" xmlns:rdf="http://www.w3.org/1999/02/22-rdf-syntax-ns#" xmlns:xlink="http://www.w3.org/1999/xlink">
 <defs>
  <linearGradient id="linearGradient6669" x1="-129.9" x2="390.34" y1="342" y2="81.12" gradientTransform="translate(2.5427 -2.1141)" gradientUnits="userSpaceOnUse">
   <stop stop-color="#0ec7f9" stop-opacity=".69804" offset="0"/>
   <stop stop-color="#276ac9" stop-opacity=".776" offset="1"/>
  </linearGradient>
 </defs>
 <metadata>
  <rdf:RDF>
   <cc:Work rdf:about="">
    <dc:format>image/svg+xml</dc:format>
    <dc:type rdf:resource="http://purl.org/dc/dcmitype/StillImage"/>
    <dc:title/>
   </cc:Work>
  </rdf:RDF>
 </metadata>
 <g transform="translate(-2.5427 -91.54)">
  <g transform="matrix(.99965 0 0 1 -11.491 -2.1268)">
   <circle cx="21.431" cy="281.39" r="5.0271" fill="#fff"/>
   <circle id="circle5097" cx="51.051" cy="269.47" r="2.4078" fill="#fff"/>
   <use transform="translate(-10.319 6.8792)" width="100%" height="100%" xlink:href="#circle5097"/>
   <use transform="matrix(.41531 0 0 .41531 4.0995 151.03)" width="100%" height="100%" xlink:href="#circle5097"/>
  </g>
  <path d="m161.29 91.54-158.75 0.34572v203h57.504c8.5523-8.0567 19.261-13.158 31.122-13.934 9.8082-0.62002 19.714 6.1231 29.515 5.487 9.801-0.63692 16.489-8.467 26.281-9.1369 9.8082-0.62002 18.699 7.7365 28.5 7.1003 9.801-0.63692 17.496-10.106 27.296-10.75 9.8004-0.64493 18.861 7.7329 28.5 7.1003 9.6275-0.63167 17.503-10.08 27.295-10.75 9.8082-0.62002 18.861 7.7324 28.501 7.0998 9.6275-0.63166 17.503-10.08 27.295-10.75 20.111-1.3156 38.558 10.12 49.612 28.355l-0.0729-171.8c-19.007 2.5608-21.521 0.94105-39.206 0.30127-20.918-0.7567-28.912-1.9581-51.271-3.022-18.651-0.88747-60.318-3.3772-80.915-2.2608-24.026-1.1288-31.206-26.385-31.206-26.385z" fill="url(#linearGradient6669)"/>
 </g>
</svg>
